<svg xmlns="http://www.w3.org/2000/svg" viewBox="0 0 256 256">
  <g fill="none" stroke-width="4" stroke-linecap="round" stroke-linejoin="round">
    <path stroke="cyan" d="M76 210
             Q70 210 70 204
             L70 150
             Q70 140 77 133
             L132 78
             Q140 70 148 78
             L203 133
             Q210 140 210 150
             L210 204
             Q210 210 204 210
             Z" />
    <path stroke="white" d="M136 130
             L133.3 129 L131.5 127.5 L130 125.7 L128.9 123.6
             L128.2 121.3 L128 119 L128.2 116.7 L128.9 114.4
             L130 112.3 L131.5 110.5 L133.3 109 L135.4 107.9
             L137.7 107.2 L140 107 L142.3 107.2 L144.6 107.9
             L146.7 109 L148.5 110.5 L150 112.3 L151.1 114.4
             L151.8 116.7 L152 119 L151.8 121.3 L151.1 123.6
             L150 125.7 L148.5 127.5 L146.7 129 L144 130
             L144 178
             L164.3 160.4
             L163.4 158.2 L163 155.9 L163.1 153.5 L163.6 151.2
             L164.6 149.1 L165.9 147.1 L167.6 145.5 L169.6 144.3
             L171.8 143.4 L174.1 143 L176.5 143.1 L178.8 143.6
             L180.9 144.6 L182.9 145.9 L184.5 147.6 L185.7 149.6
             L186.6 151.8 L187 154.1 L186.9 156.5 L186.4 158.8
             L185.4 160.9 L184.1 162.9 L182.4 164.5 L180.4 165.7
             L178.2 166.6 L175.9 167 L173.5 166.9 L171.2 166.4
             L169.1 165.4 L167.1 164.1
             L144 186
             L144 210
             L136 210
             L112.2 184.6
             L110.2 185.8 L108 186.6 L105.7 187 L103.4 186.9
             L101.1 186.3 L98.9 185.4 L97 184 L95.4 182.2
             L94.2 180.2 L93.4 178 L93 175.7 L93.1 173.4
             L93.7 171.1 L94.6 168.9 L96 167 L97.8 165.4
             L99.8 164.2 L102 163.4 L104.3 163 L106.6 163.1
             L108.9 163.7 L111.1 164.6 L113 166 L114.6 167.8
             L115.8 169.8 L116.6 172 L117 174.3 L116.9 176.6
             L116.3 178.9 L115.4 181.1
             L136 202
             Z" />
  </g>
</svg>

